<svg width="172" height="38" viewBox="0 0 172 38" fill="none" xmlns="http://www.w3.org/2000/svg">
<path d="M49.4238 25.8714V11.853H51.6283V25.8714H49.4238Z" fill="white"/>
<path d="M62.207 15.9598V25.8714H60.0026V11.853H61.8134L69.7259 21.9818V11.8728H71.95V25.8714H70.0211L62.207 15.9598Z" fill="white"/>
<path d="M90.5621 13.8077H85.917V25.8714H83.6928V13.8077H79.028V11.853H90.5621V13.8077Z" fill="white"/>
<path d="M107.238 23.9167V25.8714H97.6521V11.853H107.06V13.8077H99.8565V17.796H106.096V19.6322H99.8565V23.9167H107.238Z" fill="white"/>
<path d="M114.728 25.8714V11.853H120.81C121.439 11.853 122.017 11.9847 122.542 12.2479C123.067 12.5112 123.519 12.86 123.9 13.2944C124.293 13.7287 124.595 14.2157 124.805 14.7554C125.028 15.2951 125.14 15.8479 125.14 16.4139C125.14 17.0457 125.022 17.6446 124.786 18.2106C124.562 18.7635 124.248 19.2439 123.841 19.652C123.434 20.06 122.955 20.3562 122.404 20.5405L125.691 25.8714H123.211L120.18 20.9946H116.932V25.8714H114.728ZM116.932 19.0399H120.79C121.197 19.0399 121.558 18.9214 121.872 18.6845C122.187 18.4344 122.437 18.1119 122.62 17.717C122.804 17.3222 122.896 16.8878 122.896 16.4139C122.896 15.9269 122.791 15.4925 122.581 15.1108C122.371 14.7159 122.096 14.4 121.754 14.1631C121.413 13.9262 121.052 13.8077 120.672 13.8077H116.932V19.0399Z" fill="white"/>
<path d="M132.957 25.8714V11.8728H135.161V19.0794L141.735 11.853H144.176L138.665 18.0527L144.491 25.8714H141.991L137.267 19.4545L135.161 21.6461V25.8714H132.957Z" fill="white"/>
<path d="M151.166 25.8714V11.853H153.371V25.8714H151.166Z" fill="white"/>
<path d="M172 13.8077H167.355V25.8714H165.13V13.8077H160.466V11.853H172V13.8077Z" fill="white"/>
<path fill-rule="evenodd" clip-rule="evenodd" d="M10.8595 35.9575H27.0224C31.8954 35.9575 35.8457 31.9948 35.8457 27.1067V10.8933C35.8457 6.00515 31.8954 2.0425 27.0224 2.0425L10.8595 2.0425C5.98649 2.0425 2.03615 6.00515 2.03615 10.8933L2.03615 27.1067C2.03615 31.9948 5.98649 35.9575 10.8595 35.9575ZM10.8595 0C4.86195 0 0 4.87711 0 10.8933L0 27.1067C0 33.1229 4.86195 38 10.8595 38H27.0224C33.0199 38 37.8819 33.1229 37.8819 27.1067V10.8933C37.8819 4.87711 33.0199 0 27.0224 0L10.8595 0Z" fill="#31DE8B"/>
<path d="M5.42969 25.845L12.6149 11.9146H15.3619L8.21249 25.845H5.42969Z" fill="#31DE8B"/>
<path d="M13.5988 25.845L20.784 11.9146H23.531L16.3816 25.845H13.5988Z" fill="#31DE8B"/>
<path d="M29.2974 13.969C29.2974 14.8281 29.2664 15.5373 29.2045 16.0968C29.1481 16.6563 28.9932 17.196 28.7397 17.7159C28.4861 18.2302 28.0946 18.6371 27.565 18.9367C28.0157 19.191 28.365 19.4962 28.6129 19.8522C28.8608 20.2026 29.0354 20.6886 29.1368 21.3103C29.2439 21.9263 29.2974 22.7712 29.2974 23.8449C29.2974 24.2631 29.3622 24.5712 29.4918 24.769C29.627 24.9668 29.8129 25.0911 30.0495 25.1419C30.2862 25.1928 30.6186 25.2182 31.0467 25.2182H31.1481V27.3206C30.3369 27.3206 29.6411 27.2612 29.0608 27.1426C28.4805 27.0295 28.0326 26.812 27.7171 26.4898C27.4072 26.162 27.1932 25.7438 27.0748 25.2352C26.9622 24.7266 26.9058 23.958 26.9058 22.9294C26.9058 21.8782 26.7847 21.1549 26.5424 20.7592C26.3791 20.4936 26.1791 20.31 25.9424 20.2082C25.7058 20.1009 25.4269 20.0302 25.1058 19.9963L24.8945 19.9794V17.894C25.4523 17.8601 25.872 17.7442 26.1537 17.5464C26.4354 17.3486 26.6298 17.0434 26.7368 16.6309C26.8495 16.2127 26.9058 15.6277 26.9058 14.8761C26.9058 13.7515 26.9875 12.9037 27.1509 12.3329C27.3199 11.7565 27.7002 11.3157 28.2918 11.0105C28.889 10.7053 29.7932 10.5527 31.0045 10.5527H31.165V12.6296H30.9707C30.5087 12.6296 30.165 12.6607 29.9397 12.7229C29.72 12.7794 29.5566 12.9009 29.4495 13.0874C29.3481 13.2683 29.2974 13.5621 29.2974 13.969Z" fill="white"/>
</svg>
